<?xml version="1.0" standalone="no"?><!DOCTYPE svg PUBLIC "-//W3C//DTD SVG 1.1//EN" "http://www.w3.org/Graphics/SVG/1.1/DTD/svg11.dtd"><svg class="icon" width="32px" height="32.00px" viewBox="0 0 1024 1024" version="1.1" xmlns="http://www.w3.org/2000/svg"><path fill="#000000" d="M85.333333 256a85.333333 85.333333 0 0 1 85.333334-85.333333h213.333333a42.666667 42.666667 0 0 1 30.165333 12.501333L486.997333 256H853.333333a85.333333 85.333333 0 0 1 85.333334 85.333333v426.666667a85.333333 85.333333 0 0 1-85.333334 85.333333H170.666667a85.333333 85.333333 0 0 1-85.333334-85.333333V256z m281.002667 0H170.666667v512h682.666666V341.333333H469.333333a42.666667 42.666667 0 0 1-30.165333-12.501333L366.336 256z"  /></svg>