<?xml version="1.0" standalone="no"?><!DOCTYPE svg PUBLIC "-//W3C//DTD SVG 1.1//EN" "http://www.w3.org/Graphics/SVG/1.1/DTD/svg11.dtd"><svg t="1709196720443" class="icon" viewBox="0 0 1025 1024" version="1.1" xmlns="http://www.w3.org/2000/svg" p-id="19798" xmlns:xlink="http://www.w3.org/1999/xlink" width="200.1953125" height="200"><path d="M719.189 62.393c-79.531 0-146.668 28.44-208.173 90.232l-0.202 0.236a33.157 33.157 0 0 0-2.444-2.429c-59.699-59.229-126.467-88.039-204.051-88.039-81.339 0-157.754 31.641-215.172 89.11C31.692 208.923 0.001 285.371 0.001 366.608c0 81.139 31.624 157.517 88.909 214.905l354.066 357.012c17.989 18.224 43.048 28.645 68.708 28.645 25.664 0 50.72-10.421 68.709-28.611l353.934-356.91c57.418-57.522 89.043-133.835 89.043-215.04 0-81.237-31.658-157.685-89.146-215.105-57.42-57.455-133.733-89.111-215.035-89.111z m162.104 466.422L527.165 885.861c-8.145 8.177-22.75 8.274-30.958-0.031L141.975 528.716c-43.248-43.383-67.067-100.903-67.067-162.108 0-61.271 23.884-118.859 67.167-162.176 43.282-43.264 100.903-67.167 162.243-67.167 57.986 0 106.363 21.357 150.182 64.924l28.574 33.903c7.269 8.609 18.46 13.902 29.147 13.3a37.706 37.706 0 0 0 28.808-14.137l25.862-32.949c44.388-44.354 92.798-65.041 152.297-65.041 61.236 0 118.823 23.903 162.104 67.167 43.352 43.317 67.171 100.905 67.171 162.176 0 61.205-23.787 118.758-67.17 162.207z" p-id="19799" fill="#2c2c2c"></path><path d="M848.605 424.957c4.596 4.152 10.511 6.653 16.943 6.653 9.044 0 17.021-4.963 21.838-12.57 2.975-4.707 4.148-21.138 4.148-21.138 0-17.091-2.313-36.279-6.796-51.535-13.526-45.875-35.252-67.93-58.449-97.67-18.784-24.076-77.632-55.303-92.337-59.547-10.291-2.979-19.408-5.294-22.531-5.516-3.422-0.22-5.734-0.255-5.848-0.145-7.976 0.918-14.993 5.312-19.627 11.836-3.678 5.145-5.883 11.596-5.883 18.69 0 8.4 3.017 16.01 7.94 21.632 5.181 5.883 37.201 13.16 47.933 18.895 20.882 11.175 42.785 30.437 58.155 46.903 23.673 25.364 35.357 57.897 44.992 93.81 0.002 0.001 3.638 24.336 9.522 29.702z" p-id="19800" fill="#2c2c2c"></path></svg>