<?xml version="1.0" standalone="no"?><!DOCTYPE svg PUBLIC "-//W3C//DTD SVG 1.1//EN" "http://www.w3.org/Graphics/SVG/1.1/DTD/svg11.dtd"><svg class="icon" width="32px" height="32.00px" viewBox="0 0 1024 1024" version="1.1" xmlns="http://www.w3.org/2000/svg"><path fill="#000000" d="M512 170.666667C323.477333 170.666667 170.666667 323.477333 170.666667 512s152.810667 341.333333 341.333333 341.333333 341.333333-152.810667 341.333333-341.333333S700.522667 170.666667 512 170.666667zM85.333333 512C85.333333 276.352 276.352 85.333333 512 85.333333s426.666667 191.018667 426.666667 426.666667-191.018667 426.666667-426.666667 426.666667S85.333333 747.648 85.333333 512z"  /><path fill="#000000" d="M512 597.333333a42.666667 42.666667 0 0 1-42.666667-42.666666v-42.666667a42.666667 42.666667 0 1 1 85.333334 0v42.666667a42.666667 42.666667 0 0 1-42.666667 42.666666z"  /><path fill="#000000" d="M448 704a64 64 0 1 1 128 0 64 64 0 0 1-128 0z"  /><path fill="#000000" d="M528.64 333.290667c-40.832-1.941333-75.093333 20.864-81.216 57.728a42.666667 42.666667 0 0 1-84.181333-14.037334c15.189333-91.136 98.282667-132.330667 169.450666-128.938666 36.458667 1.749333 73.92 14.826667 102.762667 41.792C665.024 317.44 682.666667 357.034667 682.666667 405.333333c0 55.104-21.674667 95.957333-59.008 120.832C589.397333 549.013333 547.413333 554.666667 512 554.666667a42.666667 42.666667 0 1 1 0-85.333334c28.586667 0 50.602667-5.013333 64.341333-14.165333 10.666667-7.125333 20.992-19.605333 20.992-49.834667 0-26.346667-9.024-42.794667-20.138666-53.162666-11.818667-11.029333-29.013333-17.962667-48.554667-18.88z"  /></svg>