<?xml version="1.0" encoding="UTF-8"?>
<svg id="b" data-name="图层 2" xmlns="http://www.w3.org/2000/svg" xmlns:xlink="http://www.w3.org/1999/xlink" viewBox="0 0 119.39 119.5">
  <defs>
    <style>
      .f {
        fill: url(#e);
      }

      .f, .g, .h, .i, .j, .k {
        stroke-width: 0px;
      }

      .g {
        fill: #0c6066;
      }

      .h {
        fill: #fff;
      }

      .i {
        fill: url(#d);
      }

      .j {
        fill: #00f9e5;
      }

      .k {
        fill: #1e1e1e;
      }
    </style>
    <linearGradient id="d" data-name="未命名的渐变 2" x1="-890.72" y1="1323.9" x2="-889.72" y2="1323.9" gradientTransform="translate(75119.12 -14648.73) rotate(45) scale(47.96)" gradientUnits="userSpaceOnUse">
      <stop offset="0" stop-color="#00f9e5"/>
      <stop offset=".57" stop-color="#299df4"/>
      <stop offset="1" stop-color="#4a54ff"/>
    </linearGradient>
    <linearGradient id="e" data-name="未命名的渐变 2" x1="-975.51" y1="1408.69" x2="-974.51" y2="1408.69" gradientTransform="translate(-80750.75 -14648.8) rotate(135) scale(47.96 -47.96)" xlink:href="#d"/>
  </defs>
  <g id="c" data-name="图层 1">
    <g>
      <path class="j" d="m108.99,65c.8,1.1,1.2,2.4,1.1,3.7-1.1,26.8-23.2,48.2-50.3,48.2S10.59,95.5,9.49,68.7c-.1-1.3.3-2.6,1.1-3.7L55.59,5.3c2.3-3,6.8-3,9.1,0,0,0,44.3,59.7,44.3,59.7Z"/>
      <path class="h" d="m43.69,84.8c-10.2,9.2-25.8,8.4-35-1.7C-.51,72.9.29,57.3,10.39,48.1c10.2-9.2,25.8-8.4,35,1.7s8.5,25.8-1.7,35Z"/>
      <path class="g" d="m27.09,93.5c-7.4,0-14.8-3-20.1-8.9-10-11.1-9.2-28.3,1.9-38.3,5.4-4.9,12.3-7.4,19.5-7s13.9,3.5,18.8,8.9c10,11.1,9.2,28.3-1.9,38.3-5.2,4.7-11.7,7-18.2,7Zm-.1-49.6c-5.6,0-10.9,2-15.1,5.8-9.2,8.3-9.9,22.6-1.6,31.8,4,4.5,9.6,7.1,15.6,7.4s11.8-1.8,16.2-5.8c9.2-8.3,9.9-22.6,1.6-31.8-4-4.5-9.6-7.1-15.6-7.4,0,0-1.1,0-1.1,0Z"/>
      <path class="k" d="m18.09,56.5c-5.4,4.9-5.8,13.2-.9,18.5,4.9,5.4,13.2,5.8,18.5.9,1.8-1.6,3-3.6,3.7-5.7l-21.3-13.7Z"/>
      <path class="g" d="m26.19,40.9L53.59,3.2c1.5-2,3.8-3.2,6.3-3.2s4.8,1.2,6.3,3.2l27,37.8-5.4.4L62.69,6c-.6-.8-1.6-1.3-2.7-1.3s-2,.5-2.6,1.3l-26.3,36-4.9-1.1Zm-8.6,48.7c2.3,4.4,5.4,8.4,9.1,12,8.9,8.5,20.6,13.3,32.9,13.3s24-4.7,32.9-13.3c4-3.8,7.2-8.2,9.6-13l6.5-3.5c-2.7,7.4-7.1,14.2-12.9,19.8-9.8,9.4-22.6,14.6-36.1,14.6-13.45,0-26.39-5.19-36.1-14.5-5.7-5.5-10-12-12.7-19.2,0,0,6.8,3.8,6.8,3.8Z"/>
      <path class="i" d="m49.79,76.4c3.9-9,2.3-19.9-5.1-27.4-9.2-9.3-24.3-9.8-34.1-1.2-.7.7-1.4,1.3-2.1,2.1-.2.2-.1.5.1.6l40.5,26.1c.2.1.6,0,.7-.2Z"/>
      <path class="g" d="m49.79,76.4l2.1.9c1.5-3.5,2.3-7.2,2.3-10.9,0-6.9-2.6-13.8-7.8-19.1-5.3-5.3-12.3-8-19.3-8-6.4,0-12.9,2.2-18,6.8-.8.7-1.6,1.5-2.3,2.2-.5.6-.7,1.2-.7,1.9,0,.9.4,1.8,1.3,2.3l40.4,26c.5.3,1,.4,1.5.4s1-.1,1.5-.4c.4-.3.8-.7,1.1-1.2l-2.1-.9-2.1-.9,1.7.8-1-1.6c-.3.2-.6.5-.7.8l1.7.8-1-1.6,1,1.6v-1.9c-.4,0-.7.1-1,.3l1,1.6v-1.9,1.9l1-1.6c-.3-.2-.7-.3-1-.3v1.9l1-1.6L9.89,48.6l-1,1.6h1.9c0-.6-.3-1.2-.9-1.6l-1,1.6h1.9-1.9l1.4,1.3c.3-.4.5-.8.5-1.3h-1.9l1.4,1.3c.6-.6,1.2-1.3,1.9-1.9,4.2-3.7,9.5-5.6,14.9-5.6,5.8,0,11.7,2.2,16,6.6,4.4,4.4,6.5,10.1,6.5,15.8,0,3.1-.6,6.2-1.9,9l2.1,1h0Z"/>
      <path class="h" d="m75.69,84.8c10.2,9.2,25.8,8.4,35-1.7,9.2-10.2,8.4-25.8-1.7-35-10.2-9.2-25.8-8.4-35,1.7s-8.5,25.8,1.7,35Z"/>
      <path class="g" d="m74.09,86.5c-11.1-10-11.9-27.2-1.9-38.3,4.9-5.4,11.5-8.5,18.8-8.9,7.2-.4,14.2,2.1,19.5,7,11.1,10,11.9,27.2,1.9,38.3-5.3,5.9-12.7,8.9-20.1,8.9-6.5,0-13-2.3-18.2-7Zm17.1-42.6c-6,.3-11.5,2.9-15.6,7.4-8.3,9.2-7.6,23.5,1.6,31.8,4.5,4,10.2,6.1,16.2,5.8,6-.3,11.5-2.9,15.6-7.4,8.3-9.2,7.6-23.5-1.6-31.8-4.2-3.8-9.5-5.8-15.1-5.8,0,0-1.1,0-1.1,0Z"/>
      <path class="k" d="m101.29,56.4c5.4,4.9,5.8,13.2.9,18.5-4.9,5.4-13.2,5.8-18.5.9-1.8-1.6-3-3.6-3.7-5.7,0,0,21.3-13.7,21.3-13.7Z"/>
      <path class="f" d="m69.59,76.3c-3.9-9-2.3-19.9,5.1-27.4,9.2-9.3,24.3-9.8,34.1-1.2.7.7,1.4,1.3,2.1,2.1.2.2.1.5-.1.6l-40.5,26.1c-.3.2-.6.1-.7-.2Z"/>
      <path class="g" d="m69.59,76.3l2.1-.9c-1.3-2.9-1.9-5.9-1.9-9,0-5.7,2.1-11.4,6.5-15.8,4.3-4.4,10.2-6.6,16-6.6,5.3,0,10.6,1.9,14.9,5.6.7.6,1.3,1.2,1.9,1.9l1.4-1.3h-1.9c0,.4.2.9.5,1.3l1.4-1.3h-1.9,1.9l-1-1.6c-.5.4-.9,1-.9,1.6h1.9l-1-1.6-40.5,26,1,1.6v-1.9c-.3,0-.7.1-1,.3l1,1.6v-1.9,1.9l1-1.6c-.3-.2-.6-.3-1-.3v1.9l1-1.6-1,1.6,1.7-.8c-.2-.4-.4-.7-.7-.8l-1,1.6,1.7-.8-2.1.9-2.1.9c.2.5.6,1,1.1,1.2.4.3,1,.4,1.5.4s1-.1,1.5-.4l40.5-26.1c.8-.5,1.2-1.4,1.2-2.3,0-.6-.2-1.3-.7-1.8-.7-.8-1.5-1.5-2.3-2.2-5.1-4.5-11.6-6.8-18-6.8-7,0-14.1,2.7-19.3,8-5.2,5.3-7.8,12.2-7.8,19.1,0,3.7.8,7.4,2.3,10.9,0,0,2.1-.9,2.1-.9Z"/>
    </g>
  </g>
</svg>