<?xml version="1.0" encoding="UTF-8"?>
<svg id="b" data-name="图层 2" xmlns="http://www.w3.org/2000/svg" viewBox="0 0 34.63 34">
  <defs>
    <style>
      .g {
        fill: #414141;
      }

      .g, .h {
        fill-rule: evenodd;
        stroke-width: 0px;
      }

      .h {
        fill: #282929;
      }
    </style>
  </defs>
  <g id="c" data-name="图层 1">
    <g id="d" data-name="Group">
      <path id="e" data-name="Oval" class="h" d="m11.29,33.89c.28,0,1.3.18,1.3-1.1V14.96h0c0-1.66-1.34-3-3-3H3c-1.66,0-3,1.34-3,3v7.96c0,6.06,5.05,10.96,11.29,10.96Z"/>
      <path id="f" data-name="Oval" class="g" d="m32.61.01c.43,0,2.02-.27,2.02,1.71v29.28h0c0,1.66-1.34,3-3,3h-13.52c-1.66,0-3-1.34-3-3v-13.99C15.11,7.62,22.95.01,32.61.01Z"/>
    </g>
  </g>
</svg>